<?xml version="1.0" standalone="no"?>
<!DOCTYPE svg PUBLIC "-//W3C//DTD SVG 20010904//EN"
 "http://www.w3.org/TR/2001/REC-SVG-20010904/DTD/svg10.dtd">
<svg version="1.0" xmlns="http://www.w3.org/2000/svg"
 width="2027.000000pt" height="1393.000000pt" viewBox="0 0 2027.000000 1393.000000"
 preserveAspectRatio="xMidYMid meet">

<g transform="translate(0.000000,1393.000000) scale(0.100000,-0.100000)"
fill="#000000" stroke="none">
<path d="M8170 13493 c0 -33 101 -317 133 -373 17 -30 71 -120 120 -199 143
-231 154 -258 177 -412 32 -217 24 -199 163 -373 94 -118 127 -182 127 -247 0
-26 -16 -100 -36 -165 -23 -74 -39 -147 -41 -194 -5 -72 -3 -77 29 -125 18
-27 63 -81 99 -120 184 -196 196 -225 210 -525 8 -169 13 -209 28 -230 10 -14
72 -68 139 -120 230 -180 285 -254 297 -400 14 -166 -59 -231 -345 -304 -252
-64 -302 -87 -596 -271 -148 -93 -395 -251 -549 -353 -265 -174 -287 -191
-405 -311 -227 -229 -432 -531 -400 -591 11 -21 32 -28 180 -65 58 -15 110
-31 116 -36 6 -5 14 -23 18 -40 6 -33 164 -199 188 -199 7 0 47 34 88 76 218
221 592 495 769 563 89 34 297 88 486 125 153 30 414 73 469 78 l38 3 30 -120
c16 -66 36 -130 44 -143 l15 -23 28 21 c16 11 89 76 162 145 122 115 143 131
244 180 230 112 346 124 635 67 235 -46 148 -41 1170 -67 419 -11 476 -24 677
-157 187 -123 211 -144 411 -366 194 -215 281 -302 393 -391 124 -98 157 -167
146 -304 -14 -185 -80 -216 -264 -124 -83 41 -133 85 -240 211 -124 147 -171
184 -250 199 l-32 6 0 -128 c0 -183 -3 -187 -124 -201 -145 -17 -230 5 -469
119 -59 28 -113 51 -121 51 -21 0 -27 -45 -27 -190 l0 -128 -27 -6 c-16 -3
-81 -12 -145 -21 -74 -10 -175 -33 -275 -64 -288 -89 -474 -121 -700 -121
-225 0 -297 21 -588 170 -303 156 -555 269 -623 281 -93 15 -621 3 -639 -14
-7 -7 -6 -97 1 -105 4 -3 60 -9 126 -14 254 -17 589 -112 840 -238 58 -29 206
-108 330 -175 124 -67 299 -160 390 -207 467 -242 819 -310 1290 -250 85 11
181 23 212 26 l57 6 73 -74 c40 -40 116 -113 168 -160 145 -132 182 -133 311
-11 110 104 138 119 207 113 107 -10 250 -87 302 -164 62 -88 71 -192 35 -366
-18 -84 -19 -222 -3 -508 16 -300 15 -346 -6 -408 -21 -63 -93 -145 -173 -198
-128 -85 -365 -170 -507 -182 l-79 -7 -23 -67 c-49 -145 -102 -229 -296 -465
-65 -81 -126 -159 -133 -174 -31 -60 -38 -167 -32 -519 7 -385 13 -458 62
-710 48 -247 57 -322 50 -388 -10 -86 -40 -191 -90 -313 -25 -59 -45 -115 -45
-124 0 -21 33 -32 116 -40 98 -10 141 4 197 64 51 55 85 116 115 211 37 116
45 175 72 519 11 139 27 283 36 320 33 133 98 229 206 303 71 49 110 54 553
73 195 8 389 20 432 26 301 41 619 178 826 354 127 109 250 269 422 550 178
292 271 419 341 467 21 15 75 39 119 55 78 27 85 28 300 28 l220 0 95 -33
c127 -44 325 -148 487 -254 l132 -87 41 46 c22 25 40 50 40 55 0 8 -190 135
-363 242 -138 86 -326 156 -552 207 -161 36 -329 23 -528 -42 -149 -49 -179
-70 -509 -370 -111 -101 -255 -233 -320 -292 -135 -122 -174 -146 -212 -129
-27 12 -46 62 -46 119 0 52 28 168 60 251 38 98 38 123 1 155 -40 34 -92 42
-135 22 -19 -9 -95 -72 -169 -139 -307 -279 -337 -284 -517 -95 -95 100 -99
101 -226 79 -106 -19 -102 -17 -114 -63 -34 -135 -75 -211 -158 -297 -60 -62
-117 -81 -167 -57 -41 20 -52 58 -35 132 15 71 92 224 132 264 18 18 92 70
165 115 173 106 265 180 410 329 277 285 418 600 509 1136 24 141 26 173 21
331 -6 199 -32 370 -74 488 -27 73 -28 86 -27 247 0 158 2 176 28 255 32 96
89 216 143 299 56 85 169 192 237 225 140 67 302 77 900 56 l289 -11 485 -120
c267 -66 536 -129 598 -139 331 -57 739 -45 1012 30 116 32 257 87 372 146
162 82 410 248 410 274 0 5 -32 19 -71 31 -109 33 -184 24 -404 -46 -414 -133
-483 -148 -675 -148 -277 0 -457 71 -490 192 -21 80 11 129 145 221 57 39 107
75 110 80 11 17 -133 47 -360 75 l-50 6 3 90 c4 107 -4 121 -80 139 -46 11
-52 11 -76 -9 -54 -43 -68 -50 -110 -57 l-44 -7 -62 66 -62 67 -59 -55 c-115
-106 -170 -135 -257 -135 -76 0 -119 52 -108 130 1 8 36 76 77 152 142 259
246 525 294 748 41 188 30 610 -24 940 -41 251 -23 493 47 645 40 87 195 289
420 550 53 61 96 117 96 126 0 23 -30 46 -70 54 -117 21 -300 -124 -461 -364
-121 -180 -188 -339 -231 -554 -20 -98 -23 -141 -23 -352 0 -211 3 -253 23
-353 62 -301 37 -630 -62 -833 -51 -103 -152 -236 -271 -354 -119 -120 -214
-184 -705 -480 -377 -227 -489 -301 -619 -410 -104 -88 -263 -250 -318 -325
-64 -86 -139 -235 -177 -350 -26 -81 -38 -106 -53 -108 -21 -3 -54 37 -424
513 -449 577 -663 864 -704 945 -15 29 -49 119 -76 198 -59 173 -101 266 -162
361 -88 136 -214 233 -354 274 -29 9 -150 32 -269 52 -329 55 -432 90 -532
180 -75 68 -108 142 -121 278 -19 192 -47 267 -176 482 -197 327 -1066 1573
-1321 1895 -229 288 -520 549 -729 654 -101 50 -319 90 -555 101 -69 3 -151 8
-182 11 -51 4 -58 3 -58 -13z m3947 -3915 c85 -52 81 -182 -8 -230 -92 -49
-199 13 -199 115 0 109 114 173 207 115z"/>
<path d="M2660 13255 l0 -205 80 0 c44 0 80 -3 80 -6 0 -3 -15 -23 -32 -44
-161 -188 -209 -466 -124 -710 65 -187 214 -345 410 -435 128 -60 182 -69 376
-69 200 0 252 10 385 75 215 105 381 302 430 509 20 86 20 277 0 355 -20 79
-73 185 -130 260 l-45 60 80 3 80 3 0 204 0 205 -795 0 -795 0 0 -205z m902
-196 c140 -29 263 -123 320 -245 40 -86 50 -217 23 -310 -48 -168 -200 -293
-381 -314 -227 -25 -411 65 -501 248 -26 54 -28 65 -28 187 0 123 1 133 29
190 58 117 173 210 299 241 66 16 171 17 239 3z"/>
<path d="M1796 11578 c4 -134 10 -244 13 -246 3 -2 128 -79 276 -172 l270
-168 7 106 c11 189 34 152 -270 443 -146 140 -274 260 -284 267 -18 13 -19 6
-12 -230z"/>
<path d="M2660 11275 l0 -205 795 0 795 0 0 205 0 205 -795 0 -795 0 0 -205z"/>
<path d="M2913 10702 l-253 -2 0 -200 0 -200 85 0 86 0 -52 -67 c-60 -79 -111
-180 -136 -273 -24 -88 -23 -280 1 -368 86 -315 344 -527 684 -561 287 -30
538 58 715 248 185 201 250 496 167 764 -22 71 -77 167 -122 214 -18 18 -28
36 -25 40 4 4 52 2 107 -4 160 -18 239 -75 290 -210 42 -112 42 -345 0 -455
-12 -32 -39 -81 -61 -110 l-39 -52 0 -181 c0 -191 6 -255 23 -255 6 0 45 17
86 37 103 50 241 187 289 286 90 184 125 400 102 632 -22 221 -83 373 -201
498 -109 117 -227 174 -416 201 -101 15 -786 24 -1330 18z m623 -393 c233 -42
384 -259 347 -498 -28 -181 -149 -321 -317 -366 -101 -28 -232 -18 -319 22
-182 86 -279 270 -250 476 37 262 264 416 539 366z"/>
<path d="M3305 8745 c-325 -61 -567 -293 -656 -626 -30 -111 -32 -318 -5 -424
66 -253 264 -485 495 -579 95 -38 197 -56 324 -56 215 0 392 70 545 214 133
126 195 222 244 376 21 67 23 93 23 255 -1 175 -2 182 -33 275 -17 52 -51 129
-76 170 -173 295 -529 458 -861 395z m235 -406 c171 -27 319 -153 360 -309 16
-58 16 -192 0 -250 -37 -137 -144 -249 -277 -290 -78 -24 -232 -29 -303 -10
-120 32 -231 124 -287 238 -26 54 -28 65 -28 187 0 127 1 132 33 197 43 87
138 177 219 208 101 38 178 46 283 29z"/>
<path d="M2053 6763 c-10 -3 -13 -54 -13 -203 l0 -199 33 -6 c17 -3 514 -4
1102 -3 l1070 3 0 205 0 205 -1090 2 c-599 1 -1096 -1 -1102 -4z"/>
<path d="M3352 6059 c-41 -5 -111 -21 -156 -37 -137 -47 -210 -94 -322 -206
-89 -90 -107 -113 -153 -206 -75 -153 -94 -234 -94 -405 0 -151 18 -243 67
-352 102 -222 325 -410 554 -469 97 -24 373 -16 462 14 152 50 322 177 415
307 109 152 160 315 158 505 -2 246 -81 444 -243 607 -180 182 -436 272 -688
242z m243 -425 c214 -55 354 -275 317 -496 -38 -227 -213 -368 -457 -368 -138
0 -250 44 -337 131 -141 141 -164 396 -49 562 85 125 208 185 376 186 52 1
117 -6 150 -15z"/>
<path d="M2878 3979 c-107 -109 -161 -197 -210 -339 -31 -91 -32 -102 -36
-282 -3 -148 0 -205 13 -270 64 -317 311 -586 610 -663 79 -20 317 -20 402 0
225 53 447 236 543 448 87 192 110 489 55 711 -24 95 -63 184 -121 271 -60 92
-169 204 -183 190 -5 -6 -54 -77 -109 -159 l-100 -150 44 -50 c144 -164 177
-430 78 -634 -50 -102 -159 -191 -274 -222 -65 -18 -205 -15 -272 5 -224 65
-357 305 -321 577 14 104 44 174 111 257 l51 63 -36 71 c-47 95 -133 250 -144
261 -5 6 -45 -27 -101 -85z"/>
<path d="M3346 2139 c-357 -46 -612 -272 -698 -617 -31 -125 -31 -352 0 -469
44 -162 106 -266 229 -384 97 -92 173 -139 289 -178 261 -87 548 -56 757 83
116 77 228 210 287 340 57 125 65 173 65 396 0 236 -8 276 -82 429 -39 81 -60
110 -144 195 -85 88 -100 99 -112 86 -12 -14 -124 -245 -146 -302 -8 -21 -3
-32 30 -74 55 -67 77 -113 100 -201 32 -128 22 -266 -29 -373 -50 -106 -197
-221 -297 -232 l-30 -3 -3 658 -2 657 -73 -1 c-39 -1 -103 -6 -141 -10z m-96
-839 c0 -300 -3 -440 -10 -440 -19 0 -119 69 -158 109 -160 165 -164 468 -9
656 32 39 140 115 164 115 11 0 13 -78 13 -440z"/>
</g>
</svg>
